<svg width="363" height="47" viewBox="0 0 363 47" fill="none" xmlns="http://www.w3.org/2000/svg">
<g clip-path="url(#clip0_7_122)">
<path d="M360.936 18.5874L359.1 20.4113C357.578 18.9862 356.089 18.2737 354.634 18.2737C353.709 18.2737 352.914 18.5678 352.248 19.1562C351.595 19.7445 351.269 20.4309 351.269 21.2153C351.269 21.9083 351.541 22.5685 352.085 23.1961C352.628 23.8367 353.771 24.5885 355.511 25.4514C357.632 26.5104 359.073 27.5301 359.835 28.5107C360.583 29.5043 360.956 30.6222 360.956 31.8642C360.956 33.6162 360.317 35.1001 359.039 36.316C357.761 37.5319 356.164 38.1398 354.246 38.1398C352.968 38.1398 351.745 37.8718 350.575 37.3358C349.42 36.7997 348.461 36.061 347.7 35.1197L349.494 33.1586C350.949 34.7405 352.493 35.5315 354.124 35.5315C355.266 35.5315 356.238 35.1785 357.041 34.4725C357.843 33.7665 358.244 32.9363 358.244 31.9819C358.244 31.1974 357.979 30.498 357.449 29.8835C356.918 29.2821 355.722 28.5238 353.859 27.6086C351.86 26.615 350.501 25.6344 349.78 24.6669C349.059 23.6994 348.699 22.5947 348.699 21.3526C348.699 19.7314 349.27 18.3848 350.412 17.3127C351.568 16.2406 353.023 15.7046 354.777 15.7046C356.816 15.7046 358.869 16.6655 360.936 18.5874Z" fill="white"/>
<path d="M344.273 20.6858L342.01 22.039C340.052 19.5418 337.38 18.2933 333.994 18.2933C331.289 18.2933 329.038 19.13 327.244 20.8035C325.462 22.477 324.572 24.51 324.572 26.9026C324.572 28.4584 324.98 29.9227 325.796 31.2955C326.625 32.6683 327.753 33.7338 329.181 34.4921C330.622 35.2504 332.234 35.6296 334.015 35.6296C337.278 35.6296 339.943 34.381 342.01 31.8838L344.273 33.3155C343.213 34.8451 341.785 36.0349 339.99 36.8847C338.209 37.7214 336.177 38.1398 333.892 38.1398C330.384 38.1398 327.475 37.0677 325.163 34.9236C322.852 32.7794 321.696 30.1711 321.696 27.0987C321.696 25.033 322.233 23.1176 323.307 21.3526C324.395 19.5745 325.884 18.1887 327.774 17.195C329.664 16.2014 331.778 15.7046 334.117 15.7046C335.585 15.7046 336.999 15.9203 338.359 16.3518C339.732 16.7832 340.895 17.3454 341.846 18.0383C342.798 18.7313 343.607 19.6138 344.273 20.6858Z" fill="white"/>
<path d="M315.374 7.46783C316.026 7.46783 316.584 7.69009 317.046 8.13462C317.508 8.57914 317.74 9.11518 317.74 9.74273C317.74 10.3572 317.508 10.8867 317.046 11.3312C316.584 11.7758 316.026 11.998 315.374 11.998C314.735 11.998 314.184 11.7758 313.722 11.3312C313.259 10.8867 313.028 10.3572 313.028 9.74273C313.028 9.11518 313.259 8.57914 313.722 8.13462C314.184 7.69009 314.735 7.46783 315.374 7.46783ZM313.946 16.2537H316.822V37.5906H313.946V16.2537Z" fill="white"/>
<path d="M302.708 8.33075H305.584V16.2537H310.112V18.607H305.584V37.5907H302.708V18.607H298.813V16.2537H302.708V8.33075Z" fill="white"/>
<path d="M283.354 15.7046C286.766 15.7046 289.594 16.8943 291.838 19.2738C293.877 21.4441 294.897 24.0132 294.897 26.981C294.897 29.9619 293.816 32.5702 291.654 34.8059C289.506 37.0285 286.739 38.1398 283.354 38.1398C279.954 38.1398 277.174 37.0285 275.012 34.8059C272.864 32.5702 271.79 29.9619 271.79 26.981C271.79 24.0263 272.809 21.4637 274.849 19.2934C277.092 16.9009 279.927 15.7046 283.354 15.7046ZM283.354 18.3913C280.988 18.3913 278.955 19.2346 277.256 20.9212C275.556 22.6077 274.706 24.6473 274.706 27.0399C274.706 28.5826 275.094 30.0208 275.869 31.3543C276.644 32.6879 277.691 33.7208 279.009 34.4529C280.328 35.172 281.776 35.5315 283.354 35.5315C284.931 35.5315 286.379 35.172 287.698 34.4529C289.017 33.7208 290.064 32.6879 290.839 31.3543C291.614 30.0208 292.001 28.5826 292.001 27.0399C292.001 24.6473 291.144 22.6077 289.431 20.9212C287.732 19.2346 285.706 18.3913 283.354 18.3913Z" fill="white"/>
<path d="M244.522 37.5907V8.01697H247.357V19.921C248.553 18.509 249.892 17.4565 251.374 16.7636C252.856 16.0576 254.481 15.7046 256.249 15.7046C259.39 15.7046 262.068 16.8028 264.284 18.9992C266.514 21.1826 267.629 23.8367 267.629 26.9614C267.629 30.0469 266.507 32.6813 264.264 34.8647C262.02 37.0481 259.322 38.1398 256.167 38.1398C254.359 38.1398 252.72 37.7672 251.252 37.0219C249.784 36.2767 248.485 35.1589 247.357 33.6684V37.5907H244.522ZM255.943 35.4923C257.534 35.4923 259.002 35.1197 260.348 34.3744C261.694 33.6161 262.762 32.5571 263.55 31.1974C264.352 29.8377 264.753 28.3995 264.753 26.8829C264.753 25.3663 264.352 23.9217 263.55 22.5489C262.748 21.1761 261.667 20.1105 260.307 19.3522C258.961 18.5809 257.52 18.1952 255.984 18.1952C254.42 18.1952 252.931 18.5809 251.517 19.3522C250.117 20.1105 249.036 21.1369 248.274 22.4312C247.526 23.7255 247.153 25.1833 247.153 26.8045C247.153 29.2755 247.996 31.3412 249.682 33.0016C251.381 34.6621 253.468 35.4923 255.943 35.4923Z" fill="white"/>
<path d="M227.471 15.7046C230.884 15.7046 233.712 16.8943 235.956 19.2738C237.995 21.4441 239.015 24.0132 239.015 26.981C239.015 29.9619 237.934 32.5702 235.772 34.8059C233.624 37.0285 230.857 38.1398 227.471 38.1398C224.072 38.1398 221.292 37.0285 219.13 34.8059C216.982 32.5702 215.907 29.9619 215.907 26.981C215.907 24.0263 216.927 21.4637 218.967 19.2934C221.21 16.9009 224.045 15.7046 227.471 15.7046ZM227.471 18.3913C225.106 18.3913 223.073 19.2346 221.373 20.9212C219.674 22.6077 218.824 24.6473 218.824 27.0399C218.824 28.5826 219.211 30.0208 219.986 31.3543C220.761 32.6879 221.808 33.7208 223.127 34.4529C224.446 35.172 225.894 35.5315 227.471 35.5315C229.049 35.5315 230.497 35.172 231.816 34.4529C233.134 33.7208 234.181 32.6879 234.956 31.3543C235.731 30.0208 236.119 28.5826 236.119 27.0399C236.119 24.6473 235.262 22.6077 233.549 20.9212C231.85 19.2346 229.824 18.3913 227.471 18.3913Z" fill="white"/>
<path d="M203.324 16.2537H206.24V19.3719C207.11 18.1429 208.028 17.2277 208.994 16.6263C209.959 16.0118 210.965 15.7046 212.012 15.7046C212.801 15.7046 213.644 15.9465 214.541 16.4302L213.052 18.7443C212.454 18.4959 211.951 18.3717 211.543 18.3717C210.591 18.3717 209.673 18.7509 208.79 19.5092C207.906 20.2544 207.233 21.418 206.771 23C206.417 24.2159 206.24 26.6738 206.24 30.3738V37.5907H203.324V16.2537Z" fill="white"/>
<path d="M184.03 8.01697H186.885V37.5907H184.03V8.01697Z" fill="white"/>
<path d="M178.014 16.2537V37.5907H175.199V33.9234C174.003 35.3223 172.657 36.3748 171.161 37.0808C169.679 37.7868 168.054 38.1398 166.287 38.1398C163.146 38.1398 160.46 37.0481 158.231 34.8647C156.014 32.6683 154.906 30.0012 154.906 26.8634C154.906 23.7909 156.028 21.163 158.271 18.9797C160.515 16.7963 163.214 15.7046 166.368 15.7046C168.19 15.7046 169.835 16.0772 171.304 16.8224C172.786 17.5677 174.084 18.6855 175.199 20.1759V16.2537H178.014ZM166.592 18.3521C165.002 18.3521 163.533 18.7313 162.187 19.4896C160.841 20.2348 159.767 21.2872 158.965 22.647C158.176 24.0067 157.782 25.4448 157.782 26.9614C157.782 28.4649 158.183 29.9031 158.985 31.2759C159.787 32.6487 160.861 33.7208 162.208 34.4921C163.567 35.2504 165.022 35.6296 166.572 35.6296C168.136 35.6296 169.618 35.2504 171.018 34.4921C172.419 33.7338 173.493 32.7075 174.241 31.4132C175.002 30.1188 175.383 28.6611 175.383 27.0399C175.383 24.5689 174.533 22.5031 172.833 20.8427C171.147 19.1823 169.067 18.3521 166.592 18.3521Z" fill="white"/>
<path d="M142.261 16.2537H145.178V19.3719C146.048 18.1429 146.966 17.2277 147.931 16.6263C148.896 16.0118 149.903 15.7046 150.949 15.7046C151.738 15.7046 152.581 15.9465 153.478 16.4302L151.99 18.7443C151.391 18.4959 150.888 18.3717 150.48 18.3717C149.529 18.3717 148.611 18.7509 147.727 19.5092C146.843 20.2544 146.17 21.418 145.708 23C145.354 24.2159 145.178 26.6738 145.178 30.3738V37.5907H142.261V16.2537Z" fill="white"/>
<path d="M134.348 16.2537H137.224V33.2566C137.224 36.2506 136.952 38.4405 136.408 39.8264C135.66 41.7875 134.362 43.2976 132.512 44.3566C130.663 45.4156 128.44 45.9451 125.843 45.9451C123.94 45.9451 122.227 45.6836 120.704 45.1606C119.195 44.6507 117.964 43.9578 117.012 43.0818C116.061 42.2189 115.184 40.9507 114.381 39.2773H117.481C118.324 40.6893 119.412 41.7352 120.745 42.4151C122.077 43.0949 123.729 43.4348 125.701 43.4348C127.645 43.4348 129.283 43.0818 130.616 42.3758C131.962 41.6829 132.92 40.8069 133.491 39.7479C134.062 38.6889 134.348 36.9827 134.348 34.6294V33.5312C133.274 34.8386 131.962 35.8453 130.412 36.5513C128.862 37.2442 127.217 37.5907 125.476 37.5907C123.437 37.5907 121.52 37.107 119.725 36.1395C117.93 35.1589 116.543 33.845 115.564 32.1976C114.585 30.5503 114.096 28.7395 114.096 26.7653C114.096 24.7911 114.606 22.9542 115.625 21.2546C116.645 19.5418 118.052 18.1887 119.847 17.195C121.656 16.2014 123.559 15.7046 125.558 15.7046C127.217 15.7046 128.76 16.038 130.187 16.7048C131.629 17.3585 133.016 18.4436 134.348 19.9602V16.2537ZM125.925 18.3521C124.307 18.3521 122.804 18.7313 121.418 19.4896C120.031 20.2348 118.943 21.2742 118.154 22.6077C117.366 23.9282 116.972 25.3598 116.972 26.9026C116.972 29.2429 117.787 31.1778 119.419 32.7075C121.051 34.2372 123.165 35.002 125.762 35.002C128.386 35.002 130.493 34.2437 132.084 32.7271C133.689 31.2105 134.491 29.2167 134.491 26.7457C134.491 25.1376 134.124 23.706 133.389 22.4508C132.655 21.1827 131.615 20.1825 130.269 19.4503C128.923 18.7182 127.475 18.3521 125.925 18.3521Z" fill="white"/>
<path d="M106.754 30.5111L109.16 31.7269C108.372 33.2174 107.461 34.4202 106.427 35.3354C105.394 36.2506 104.231 36.9501 102.94 37.4338C101.648 37.9045 100.186 38.1398 98.5548 38.1398C94.9381 38.1398 92.11 37.0024 90.0705 34.7275C88.031 32.4395 87.0113 29.8573 87.0113 26.981C87.0113 24.2747 87.8747 21.8625 89.6015 19.7445C91.7905 17.0512 94.7206 15.7046 98.3917 15.7046C102.172 15.7046 105.19 17.0839 107.447 19.8426C109.051 21.7906 109.867 24.2224 109.894 27.1379H89.9482C90.0026 29.622 90.8251 31.6616 92.416 33.2566C94.0068 34.8386 95.9715 35.6296 98.3101 35.6296C99.4386 35.6296 100.533 35.44 101.594 35.0609C102.668 34.6817 103.579 34.1783 104.327 33.5508C105.074 32.9232 105.883 31.91 106.754 30.5111ZM106.754 24.765C106.373 23.3007 105.815 22.1305 105.081 21.2546C104.361 20.3786 103.402 19.6726 102.206 19.1366C101.009 18.6005 99.7513 18.3325 98.4325 18.3325C96.257 18.3325 94.3875 19.0058 92.8239 20.3524C91.6817 21.333 90.8184 22.8038 90.2337 24.765H106.754Z" fill="white"/>
<path d="M76.4059 8.33075H79.2816V16.2537H83.8093V18.607H79.2816V37.5907H76.4059V18.607H72.5105V16.2537H76.4059V8.33075Z" fill="white"/>
<path d="M48.424 16.2537H51.2793V20.0779C52.4214 18.6136 53.6859 17.5219 55.0728 16.8028C56.4596 16.0707 57.9689 15.7046 59.6005 15.7046C61.2592 15.7046 62.7277 16.1099 64.0058 16.9205C65.2974 17.7311 66.2492 18.8228 66.8611 20.1956C67.4729 21.5683 67.7788 23.706 67.7788 26.6084V37.5907H64.9439V27.4125C64.9439 24.9545 64.8352 23.3137 64.6176 22.4901C64.2777 21.0781 63.6387 20.0191 62.7005 19.3131C61.7623 18.594 60.5386 18.2344 59.0294 18.2344C57.3026 18.2344 55.7526 18.7835 54.3793 19.8818C53.0197 20.98 52.1223 22.3397 51.6872 23.9609C51.4153 25.0199 51.2793 26.9549 51.2793 29.7658V37.5907H48.424V16.2537Z" fill="white"/>
<path d="M41.0614 7.46783C41.7141 7.46783 42.2715 7.69009 42.7338 8.13462C43.1961 8.57914 43.4272 9.11518 43.4272 9.74273C43.4272 10.3572 43.1961 10.8867 42.7338 11.3312C42.2715 11.7758 41.7141 11.998 41.0614 11.998C40.4224 11.998 39.8717 11.7758 39.4094 11.3312C38.9471 10.8867 38.716 10.3572 38.716 9.74273C38.716 9.11518 38.9471 8.57914 39.4094 8.13462C39.8717 7.69009 40.4224 7.46783 41.0614 7.46783ZM39.6338 16.2537H42.5095V37.5906H39.6338V16.2537Z" fill="white"/>
<path d="M17.9336 18.9992C17.9336 16.2668 18.0423 13.0048 18.2599 9.21325C18.3958 6.80761 18.763 4.89879 19.3612 3.48678C19.7011 2.70233 20.1838 2.10092 20.8092 1.68255C21.4483 1.26418 22.0805 1.05499 22.706 1.05499C23.3722 1.05499 23.9637 1.27072 24.4803 1.70216C24.997 2.13361 25.2553 2.61735 25.2553 3.15339C25.2553 3.7548 25.0718 4.24508 24.7047 4.62423C24.3512 5.00338 23.9093 5.19296 23.379 5.19296C22.9031 5.19296 22.3865 4.95762 21.829 4.48695C21.5163 4.22547 21.2443 4.09473 21.0132 4.09473C20.7685 4.09473 20.5713 4.19279 20.4217 4.3889C20.2722 4.57194 20.1974 4.89225 20.1974 5.34985C20.1974 5.89896 20.2586 6.84684 20.381 8.19347C20.884 13.5539 21.1356 17.901 21.1356 21.2349C21.1356 22.1109 21.0336 25.8174 20.8296 32.3545C20.7073 36.3421 20.1362 39.0223 19.1165 40.3951C18.3686 41.4018 17.4101 41.9051 16.2408 41.9051C15.5337 41.9051 14.9559 41.6829 14.5072 41.2384C14.0585 40.7938 13.8342 40.2251 13.8342 39.5322C13.8342 38.9569 14.0041 38.4863 14.344 38.1202C14.6976 37.7672 15.1394 37.5907 15.6697 37.5907C16.2136 37.5907 16.6895 37.8064 17.0974 38.2378C17.4781 38.6431 17.8044 38.8458 18.0763 38.8458C18.3075 38.8458 18.4978 38.7477 18.6474 38.5516C18.7969 38.3686 18.8717 38.0679 18.8717 37.6495C18.8717 37.1004 18.8105 36.3159 18.6882 35.2962C18.1851 31.1647 17.9336 25.7324 17.9336 18.9992Z" fill="white"/>
<path d="M6.47158 18.9992C6.47158 16.2668 6.58035 13.0048 6.7979 9.21325C6.93387 6.80761 7.30098 4.89879 7.89923 3.48678C8.23914 2.70233 8.72182 2.10092 9.34727 1.68255C9.98631 1.26418 10.6186 1.05499 11.244 1.05499C11.9102 1.05499 12.5017 1.27072 13.0184 1.70216C13.535 2.13361 13.7934 2.61735 13.7934 3.15339C13.7934 3.7548 13.6098 4.24508 13.2427 4.62423C12.8892 5.00338 12.4473 5.19296 11.917 5.19296C11.4412 5.19296 10.9245 4.95762 10.367 4.48695C10.0543 4.22547 9.78236 4.09473 9.55122 4.09473C9.30648 4.09473 9.10933 4.19279 8.95977 4.3889C8.8102 4.57194 8.73542 4.89225 8.73542 5.34985C8.73542 5.89896 8.79661 6.84684 8.91898 8.19347C9.42205 13.5539 9.67359 17.901 9.67359 21.2349C9.67359 22.1109 9.57161 25.8174 9.36767 32.3545C9.2453 36.3421 8.67424 39.0223 7.65449 40.3951C6.90667 41.4018 5.94811 41.9051 4.7788 41.9051C4.07177 41.9051 3.49392 41.6829 3.04523 41.2384C2.59654 40.7938 2.37219 40.2251 2.37219 39.5322C2.37219 38.9569 2.54215 38.4863 2.88207 38.1202C3.23558 37.7672 3.67747 37.5907 4.20774 37.5907C4.7516 37.5907 5.22749 37.8064 5.63539 38.2378C6.01609 38.6431 6.34241 38.8458 6.61434 38.8458C6.84549 38.8458 7.03584 38.7477 7.1854 38.5516C7.33497 38.3686 7.40975 38.0679 7.40975 37.6495C7.40975 37.1004 7.34856 36.3159 7.22619 35.2962C6.72312 31.1647 6.47158 25.7324 6.47158 18.9992Z" fill="white"/>
</g>
<defs>
<clipPath id="clip0_7_122">
<rect width="359" height="45" fill="white" transform="translate(2 1)"/>
</clipPath>
</defs>
</svg>
