<svg width="71" height="71" viewBox="0 0 71 71" fill="none" xmlns="http://www.w3.org/2000/svg">
<g clip-path="url(#clip0_8_152)">
<path d="M39.7066 32.9501C39.7066 29.8828 39.824 26.2211 40.0588 21.965C40.2056 19.2646 40.6018 17.1219 41.2476 15.5369C41.6145 14.6563 42.1355 13.9812 42.8106 13.5116C43.5004 13.0419 44.1828 12.8071 44.8579 12.8071C45.577 12.8071 46.2154 13.0493 46.7731 13.5336C47.3308 14.0179 47.6097 14.5609 47.6097 15.1626C47.6097 15.8377 47.4115 16.3881 47.0153 16.8137C46.6337 17.2393 46.1567 17.4521 45.5844 17.4521C45.0707 17.4521 44.513 17.1879 43.9113 16.6596C43.5737 16.3661 43.2802 16.2193 43.0307 16.2193C42.7666 16.2193 42.5537 16.3294 42.3923 16.5495C42.2309 16.755 42.1502 17.1146 42.1502 17.6282C42.1502 18.2446 42.2162 19.3086 42.3483 20.8203C42.8913 26.8375 43.1628 31.7173 43.1628 35.4597C43.1628 36.443 43.0527 40.6037 42.8326 47.9417C42.7005 52.4179 42.0841 55.4265 40.9834 56.9675C40.1762 58.0976 39.1416 58.6626 37.8794 58.6626C37.1163 58.6626 36.4925 58.4131 36.0082 57.9141C35.5239 57.4152 35.2817 56.7767 35.2817 55.9989C35.2817 55.3532 35.4652 54.8248 35.8321 54.4139C36.2137 54.0176 36.6906 53.8195 37.263 53.8195C37.8501 53.8195 38.3637 54.0617 38.804 54.546C39.2149 55.0009 39.5672 55.2284 39.8607 55.2284C40.1102 55.2284 40.3156 55.1183 40.4771 54.8982C40.6385 54.6927 40.7192 54.3552 40.7192 53.8856C40.7192 53.2692 40.6532 52.3886 40.5211 51.2439C39.9781 46.6062 39.7066 40.5083 39.7066 32.9501Z" fill="white"/>
<path d="M27.3346 32.9501C27.3346 29.8828 27.452 26.2211 27.6869 21.965C27.8336 19.2646 28.2299 17.1219 28.8756 15.5369C29.2425 14.6563 29.7635 13.9812 30.4386 13.5116C31.1284 13.0419 31.8108 12.8071 32.4859 12.8071C33.2051 12.8071 33.8435 13.0493 34.4012 13.5336C34.9589 14.0179 35.2377 14.5609 35.2377 15.1626C35.2377 15.8377 35.0396 16.3881 34.6433 16.8137C34.2618 17.2393 33.7848 17.4521 33.2124 17.4521C32.6988 17.4521 32.1411 17.1879 31.5393 16.6596C31.2018 16.3661 30.9083 16.2193 30.6588 16.2193C30.3946 16.2193 30.1818 16.3294 30.0204 16.5495C29.8589 16.755 29.7782 17.1146 29.7782 17.6282C29.7782 18.2446 29.8443 19.3086 29.9763 20.8203C30.5194 26.8375 30.7909 31.7173 30.7909 35.4597C30.7909 36.443 30.6808 40.6037 30.4606 47.9417C30.3286 52.4179 29.7122 55.4265 28.6115 56.9675C27.8043 58.0976 26.7696 58.6626 25.5075 58.6626C24.7443 58.6626 24.1206 58.4131 23.6363 57.9141C23.1519 57.4152 22.9098 56.7767 22.9098 55.9989C22.9098 55.3532 23.0932 54.8248 23.4601 54.4139C23.8417 54.0176 24.3187 53.8195 24.8911 53.8195C25.4781 53.8195 25.9918 54.0617 26.4321 54.546C26.843 55.0009 27.1952 55.2284 27.4887 55.2284C27.7382 55.2284 27.9437 55.1183 28.1051 54.8982C28.2666 54.6927 28.3473 54.3552 28.3473 53.8856C28.3473 53.2692 28.2812 52.3886 28.1492 51.2439C27.6061 46.6062 27.3346 40.5083 27.3346 32.9501Z" fill="white"/>
</g>
<defs>
<clipPath id="clip0_8_152">
<rect width="71" height="71" fill="white"/>
</clipPath>
</defs>
</svg>
