<svg width="252" height="99" viewBox="0 0 252 99" fill="none" xmlns="http://www.w3.org/2000/svg">
<path d="M237.173 1.50922H240.455V36.853H237.173V1.50922Z" fill="white"/>
<path d="M230.259 11.353V36.853H227.025V32.4702C225.65 34.142 224.103 35.3998 222.384 36.2436C220.681 37.0873 218.814 37.5092 216.783 37.5092C213.173 37.5092 210.087 36.2045 207.525 33.5952C204.978 30.9702 203.705 27.7827 203.705 24.0327C203.705 20.3608 204.994 17.2202 207.572 14.6108C210.15 12.0014 213.252 10.6967 216.877 10.6967C218.97 10.6967 220.861 11.142 222.548 12.0327C224.252 12.9233 225.744 14.2592 227.025 16.0405V11.353H230.259ZM217.134 13.8608C215.306 13.8608 213.619 14.3139 212.072 15.2202C210.525 16.1108 209.291 17.3686 208.369 18.9936C207.462 20.6186 207.009 22.3373 207.009 24.1498C207.009 25.9467 207.47 27.6655 208.392 29.3061C209.314 30.9467 210.548 32.228 212.095 33.1498C213.658 34.0561 215.33 34.5092 217.111 34.5092C218.908 34.5092 220.611 34.0561 222.22 33.1498C223.83 32.2436 225.064 31.017 225.923 29.4702C226.798 27.9233 227.236 26.1811 227.236 24.2436C227.236 21.2905 226.259 18.8217 224.306 16.8373C222.369 14.853 219.978 13.8608 217.134 13.8608Z" fill="white"/>
<path d="M189.173 11.353H192.525V15.0795C193.525 13.6108 194.58 12.517 195.689 11.7983C196.798 11.0639 197.955 10.6967 199.158 10.6967C200.064 10.6967 201.033 10.9858 202.064 11.5639L200.353 14.3295C199.666 14.0327 199.087 13.8842 198.619 13.8842C197.525 13.8842 196.47 14.3373 195.455 15.2436C194.439 16.1342 193.666 17.5248 193.134 19.4155C192.728 20.8686 192.525 23.8061 192.525 28.228V36.853H189.173V11.353Z" fill="white"/>
<path d="M180.08 11.353H183.384V31.6733C183.384 35.2514 183.072 37.8686 182.447 39.5248C181.587 41.8686 180.095 43.6733 177.97 44.9389C175.845 46.2045 173.291 46.8373 170.306 46.8373C168.119 46.8373 166.15 46.5248 164.4 45.8998C162.666 45.2905 161.252 44.4623 160.158 43.4155C159.064 42.3842 158.056 40.8686 157.134 38.8686H160.697C161.666 40.5561 162.916 41.8061 164.447 42.6186C165.978 43.4311 167.877 43.8373 170.142 43.8373C172.377 43.8373 174.259 43.4155 175.791 42.5717C177.337 41.7436 178.439 40.6967 179.095 39.4311C179.752 38.1655 180.08 36.1264 180.08 33.3139V32.0014C178.845 33.5639 177.337 34.767 175.556 35.6108C173.775 36.4389 171.884 36.853 169.884 36.853C167.541 36.853 165.337 36.2748 163.275 35.1186C161.212 33.9467 159.619 32.3764 158.494 30.4077C157.369 28.4389 156.806 26.2748 156.806 23.9155C156.806 21.5561 157.392 19.3608 158.564 17.3295C159.736 15.2827 161.353 13.6655 163.416 12.478C165.494 11.2905 167.681 10.6967 169.978 10.6967C171.884 10.6967 173.658 11.0952 175.298 11.892C176.955 12.6733 178.548 13.9702 180.08 15.7827V11.353ZM170.4 13.8608C168.541 13.8608 166.814 14.3139 165.22 15.2202C163.627 16.1108 162.377 17.353 161.47 18.9467C160.564 20.5248 160.111 22.2358 160.111 24.0795C160.111 26.8764 161.048 29.1889 162.923 31.017C164.798 32.8452 167.228 33.7592 170.212 33.7592C173.228 33.7592 175.65 32.853 177.478 31.0405C179.322 29.228 180.244 26.8452 180.244 23.892C180.244 21.9702 179.822 20.2592 178.978 18.7592C178.134 17.2436 176.939 16.0483 175.392 15.1733C173.845 14.2983 172.181 13.8608 170.4 13.8608Z" fill="white"/>
<path d="M148.369 28.392L151.134 29.8452C150.228 31.6264 149.181 33.0639 147.994 34.1577C146.806 35.2514 145.47 36.0873 143.986 36.6655C142.502 37.228 140.822 37.5092 138.947 37.5092C134.791 37.5092 131.541 36.1498 129.197 33.4311C126.853 30.6967 125.681 27.6108 125.681 24.1733C125.681 20.9389 126.673 18.0561 128.658 15.5248C131.173 12.3061 134.541 10.6967 138.759 10.6967C143.103 10.6967 146.572 12.3452 149.166 15.642C151.009 17.9702 151.947 20.8764 151.978 24.3608H129.056C129.119 27.3295 130.064 29.767 131.892 31.6733C133.72 33.5639 135.978 34.5092 138.666 34.5092C139.962 34.5092 141.22 34.2827 142.439 33.8295C143.673 33.3764 144.72 32.7748 145.58 32.0248C146.439 31.2748 147.369 30.0639 148.369 28.392ZM148.369 21.5248C147.931 19.7748 147.291 18.3764 146.447 17.3295C145.619 16.2827 144.517 15.4389 143.142 14.7983C141.767 14.1577 140.322 13.8373 138.806 13.8373C136.306 13.8373 134.158 14.642 132.361 16.2514C131.048 17.4233 130.056 19.1811 129.384 21.5248H148.369Z" fill="white"/>
<path d="M113.494 1.88422H116.798V11.353H122.002V14.1655H116.798V36.853H113.494V14.1655H109.017V11.353H113.494V1.88422Z" fill="white"/>
<path d="M81.3375 11.353H84.6187V15.9233C85.9312 14.1733 87.3843 12.8686 88.9781 12.0092C90.5718 11.1342 92.3062 10.6967 94.1812 10.6967C96.0875 10.6967 97.775 11.1811 99.2437 12.1498C100.728 13.1186 101.822 14.4233 102.525 16.0639C103.228 17.7045 103.58 20.2592 103.58 23.728V36.853H100.322V24.6889C100.322 21.7514 100.197 19.7905 99.9468 18.8061C99.5562 17.1186 98.8218 15.853 97.7437 15.0092C96.6656 14.1498 95.2593 13.7202 93.525 13.7202C91.5406 13.7202 89.7593 14.3764 88.1812 15.6889C86.6187 17.0014 85.5875 18.6264 85.0875 20.5639C84.775 21.8295 84.6187 24.142 84.6187 27.5014V36.853H81.3375V11.353Z" fill="white"/>
<path d="M72.8765 0.852974C73.6265 0.852974 74.2672 1.1186 74.7984 1.64985C75.3297 2.1811 75.5953 2.82172 75.5953 3.57172C75.5953 4.3061 75.3297 4.93891 74.7984 5.47016C74.2672 6.00141 73.6265 6.26704 72.8765 6.26704C72.1422 6.26704 71.5093 6.00141 70.9781 5.47016C70.4468 4.93891 70.1812 4.3061 70.1812 3.57172C70.1812 2.82172 70.4468 2.1811 70.9781 1.64985C71.5093 1.1186 72.1422 0.852974 72.8765 0.852974ZM71.2359 11.353H74.5406V36.853H71.2359V11.353Z" fill="white"/>
<path d="M251.611 74.142L249.502 76.3217C247.752 74.6186 246.041 73.767 244.369 73.767C243.306 73.767 242.392 74.1186 241.627 74.8217C240.877 75.5248 240.502 76.3452 240.502 77.2827C240.502 78.1108 240.814 78.8998 241.439 79.6498C242.064 80.4155 243.377 81.3139 245.377 82.3452C247.814 83.6108 249.47 84.8295 250.345 86.0014C251.205 87.1889 251.634 88.5248 251.634 90.0092C251.634 92.103 250.9 93.8764 249.431 95.3295C247.962 96.7827 246.127 97.5092 243.923 97.5092C242.455 97.5092 241.048 97.1889 239.705 96.5483C238.377 95.9077 237.275 95.0248 236.4 93.8998L238.462 91.5561C240.134 93.4467 241.908 94.392 243.783 94.392C245.095 94.392 246.212 93.9702 247.134 93.1264C248.056 92.2827 248.517 91.2905 248.517 90.1498C248.517 89.2123 248.212 88.3764 247.603 87.642C246.994 86.9233 245.619 86.017 243.478 84.9233C241.181 83.7358 239.619 82.5639 238.791 81.4077C237.962 80.2514 237.548 78.9311 237.548 77.4467C237.548 75.5092 238.205 73.8998 239.517 72.6186C240.845 71.3373 242.517 70.6967 244.533 70.6967C246.877 70.6967 249.236 71.8452 251.611 74.142Z" fill="white"/>
<path d="M232.462 76.6498L229.861 78.267C227.611 75.2827 224.541 73.7905 220.65 73.7905C217.541 73.7905 214.955 74.7905 212.892 76.7905C210.845 78.7905 209.822 81.2202 209.822 84.0795C209.822 85.9389 210.291 87.6889 211.228 89.3295C212.181 90.9702 213.478 92.2436 215.119 93.1498C216.775 94.0561 218.627 94.5092 220.673 94.5092C224.423 94.5092 227.486 93.017 229.861 90.0327L232.462 91.7436C231.244 93.5717 229.603 94.9936 227.541 96.0092C225.494 97.0092 223.158 97.5092 220.533 97.5092C216.502 97.5092 213.158 96.228 210.502 93.6655C207.845 91.103 206.517 87.9858 206.517 84.3139C206.517 81.8452 207.134 79.5561 208.369 77.4467C209.619 75.3217 211.33 73.6655 213.502 72.478C215.673 71.2905 218.103 70.6967 220.791 70.6967C222.478 70.6967 224.103 70.9545 225.666 71.4702C227.244 71.9858 228.58 72.6577 229.673 73.4858C230.767 74.3139 231.697 75.3686 232.462 76.6498Z" fill="white"/>
<path d="M199.252 60.853C200.002 60.853 200.642 61.1186 201.173 61.6498C201.705 62.1811 201.97 62.8217 201.97 63.5717C201.97 64.3061 201.705 64.9389 201.173 65.4702C200.642 66.0014 200.002 66.267 199.252 66.267C198.517 66.267 197.884 66.0014 197.353 65.4702C196.822 64.9389 196.556 64.3061 196.556 63.5717C196.556 62.8217 196.822 62.1811 197.353 61.6498C197.884 61.1186 198.517 60.853 199.252 60.853ZM197.611 71.353H200.916V96.853H197.611V71.353Z" fill="white"/>
<path d="M184.697 61.8842H188.002V71.353H193.205V74.1655H188.002V96.853H184.697V74.1655H180.22V71.353H184.697V61.8842Z" fill="white"/>
<path d="M162.455 70.6967C166.377 70.6967 169.627 72.1186 172.205 74.9623C174.548 77.5561 175.72 80.6264 175.72 84.1733C175.72 87.7358 174.478 90.853 171.994 93.5248C169.525 96.1811 166.345 97.5092 162.455 97.5092C158.548 97.5092 155.353 96.1811 152.869 93.5248C150.4 90.853 149.166 87.7358 149.166 84.1733C149.166 80.642 150.337 77.5795 152.681 74.9858C155.259 72.1264 158.517 70.6967 162.455 70.6967ZM162.455 73.9077C159.736 73.9077 157.4 74.9155 155.447 76.9311C153.494 78.9467 152.517 81.3842 152.517 84.2436C152.517 86.0873 152.962 87.8061 153.853 89.3998C154.744 90.9936 155.947 92.228 157.462 93.103C158.978 93.9623 160.642 94.392 162.455 94.392C164.267 94.392 165.931 93.9623 167.447 93.103C168.962 92.228 170.166 90.9936 171.056 89.3998C171.947 87.8061 172.392 86.0873 172.392 84.2436C172.392 81.3842 171.408 78.9467 169.439 76.9311C167.486 74.9155 165.158 73.9077 162.455 73.9077Z" fill="white"/>
<path d="M117.83 96.853V61.5092H121.087V75.7358C122.462 74.0483 124.002 72.7905 125.705 71.9623C127.408 71.1186 129.275 70.6967 131.306 70.6967C134.916 70.6967 137.994 72.0092 140.541 74.6342C143.103 77.2436 144.384 80.4155 144.384 84.1498C144.384 87.8373 143.095 90.9858 140.517 93.5952C137.939 96.2045 134.837 97.5092 131.212 97.5092C129.134 97.5092 127.252 97.0639 125.564 96.1733C123.877 95.2827 122.384 93.9467 121.087 92.1655V96.853H117.83ZM130.955 94.3452C132.783 94.3452 134.47 93.8998 136.017 93.0092C137.564 92.103 138.791 90.8373 139.697 89.2123C140.619 87.5873 141.08 85.8686 141.08 84.0561C141.08 82.2436 140.619 80.517 139.697 78.8764C138.775 77.2358 137.533 75.9623 135.97 75.0561C134.423 74.1342 132.767 73.6733 131.002 73.6733C129.205 73.6733 127.494 74.1342 125.869 75.0561C124.259 75.9623 123.017 77.1889 122.142 78.7358C121.283 80.2827 120.853 82.0248 120.853 83.9623C120.853 86.9155 121.822 89.3842 123.759 91.3686C125.712 93.353 128.111 94.3452 130.955 94.3452Z" fill="white"/>
<path d="M98.2359 70.6967C102.158 70.6967 105.408 72.1186 107.986 74.9623C110.33 77.5561 111.502 80.6264 111.502 84.1733C111.502 87.7358 110.259 90.853 107.775 93.5248C105.306 96.1811 102.127 97.5092 98.2359 97.5092C94.3297 97.5092 91.1343 96.1811 88.65 93.5248C86.1812 90.853 84.9468 87.7358 84.9468 84.1733C84.9468 80.642 86.1187 77.5795 88.4625 74.9858C91.0406 72.1264 94.2984 70.6967 98.2359 70.6967ZM98.2359 73.9077C95.5172 73.9077 93.1812 74.9155 91.2281 76.9311C89.275 78.9467 88.2984 81.3842 88.2984 84.2436C88.2984 86.0873 88.7437 87.8061 89.6343 89.3998C90.525 90.9936 91.7281 92.228 93.2437 93.103C94.7593 93.9623 96.4234 94.392 98.2359 94.392C100.048 94.392 101.712 93.9623 103.228 93.103C104.744 92.228 105.947 90.9936 106.837 89.3998C107.728 87.8061 108.173 86.0873 108.173 84.2436C108.173 81.3842 107.189 78.9467 105.22 76.9311C103.267 74.9155 100.939 73.9077 98.2359 73.9077Z" fill="white"/>
<path d="M70.4859 71.353H73.8375V75.0795C74.8375 73.6108 75.8922 72.517 77.0015 71.7983C78.1109 71.0639 79.2672 70.6967 80.4703 70.6967C81.3765 70.6967 82.3453 70.9858 83.3765 71.5639L81.6656 74.3295C80.9781 74.0327 80.4 73.8842 79.9312 73.8842C78.8375 73.8842 77.7828 74.3373 76.7672 75.2436C75.7515 76.1342 74.9781 77.5248 74.4468 79.4155C74.0406 80.8686 73.8375 83.8061 73.8375 88.228V96.853H70.4859V71.353Z" fill="white"/>
<path d="M36.54 44.2514C36.54 37.7202 36.79 29.9233 37.29 20.8608C37.6025 15.1108 38.4463 10.5483 39.8213 7.17329C40.6025 5.29829 41.7119 3.86079 43.1494 2.86079C44.6182 1.86079 46.0713 1.36079 47.5088 1.36079C49.04 1.36079 50.3994 1.87641 51.5869 2.90766C52.7744 3.93891 53.3682 5.09516 53.3682 6.37641C53.3682 7.81391 52.9463 8.98579 52.1025 9.89204C51.29 10.7983 50.2744 11.2514 49.0557 11.2514C47.9619 11.2514 46.7744 10.6889 45.4932 9.56391C44.7744 8.93891 44.1494 8.62641 43.6182 8.62641C43.0557 8.62641 42.6025 8.86079 42.2588 9.32954C41.915 9.76704 41.7432 10.5327 41.7432 11.6264C41.7432 12.9389 41.8838 15.2045 42.165 18.4233C43.3213 31.2358 43.8994 41.6264 43.8994 49.5952C43.8994 51.6889 43.665 60.5483 43.1963 76.1733C42.915 85.7045 41.6025 92.1108 39.2588 95.392C37.54 97.7983 35.3369 99.0014 32.6494 99.0014C31.0244 99.0014 29.6963 98.4702 28.665 97.4077C27.6338 96.3452 27.1182 94.9858 27.1182 93.3295C27.1182 91.9545 27.5088 90.8295 28.29 89.9545C29.1025 89.1108 30.1182 88.6889 31.3369 88.6889C32.5869 88.6889 33.6807 89.2045 34.6182 90.2358C35.4932 91.2045 36.2432 91.6889 36.8682 91.6889C37.3994 91.6889 37.8369 91.4545 38.1807 90.9858C38.5244 90.5483 38.6963 89.8295 38.6963 88.8295C38.6963 87.517 38.5557 85.642 38.2744 83.2045C37.1182 73.3295 36.54 60.3452 36.54 44.2514Z" fill="#F9F9F9"/>
<path d="M10.1963 44.2514C10.1963 37.7202 10.4463 29.9233 10.9463 20.8608C11.2588 15.1108 12.1025 10.5483 13.4775 7.17329C14.2588 5.29829 15.3682 3.86079 16.8057 2.86079C18.2744 1.86079 19.7275 1.36079 21.165 1.36079C22.6963 1.36079 24.0557 1.87641 25.2432 2.90766C26.4307 3.93891 27.0244 5.09516 27.0244 6.37641C27.0244 7.81391 26.6025 8.98579 25.7588 9.89204C24.9463 10.7983 23.9307 11.2514 22.7119 11.2514C21.6182 11.2514 20.4307 10.6889 19.1494 9.56391C18.4307 8.93891 17.8057 8.62641 17.2744 8.62641C16.7119 8.62641 16.2588 8.86079 15.915 9.32954C15.5713 9.76704 15.3994 10.5327 15.3994 11.6264C15.3994 12.9389 15.54 15.2045 15.8213 18.4233C16.9775 31.2358 17.5557 41.6264 17.5557 49.5952C17.5557 51.6889 17.3213 60.5483 16.8525 76.1733C16.5713 85.7045 15.2588 92.1108 12.915 95.392C11.1963 97.7983 8.99316 99.0014 6.30566 99.0014C4.68066 99.0014 3.35254 98.4702 2.32129 97.4077C1.29004 96.3452 0.774414 94.9858 0.774414 93.3295C0.774414 91.9545 1.16504 90.8295 1.94629 89.9545C2.75879 89.1108 3.77441 88.6889 4.99316 88.6889C6.24316 88.6889 7.33691 89.2045 8.27441 90.2358C9.14941 91.2045 9.89941 91.6889 10.5244 91.6889C11.0557 91.6889 11.4932 91.4545 11.8369 90.9858C12.1807 90.5483 12.3525 89.8295 12.3525 88.8295C12.3525 87.517 12.2119 85.642 11.9307 83.2045C10.7744 73.3295 10.1963 60.3452 10.1963 44.2514Z" fill="#F9F9F9"/>
</svg>
